<?xml version="1.0" encoding="UTF-8" standalone="no"?>
<!-- Copyright 2017 mathsisfun.com -->
<svg xmlns="http://www.w3.org/2000/svg" width="234.3" height="167.7" version="1.1">
<defs>
<marker id="id1" style="overflow:visible;" orient="auto">
<path transform="matrix(.8 0 0 .8 10 0)" style="fill:#f44800; stroke:#f44800; stroke-width:1pt;" d="m0 0 5-5-17.5 5 17.5 5-5-5z"/>
</marker>
<marker id="id2" style="overflow:visible;" orient="auto">
<path transform="matrix(-.8 0 0 -.8 -10 0)" style="fill:#f44800; stroke:#f44800; stroke-width:1pt;" d="m0 0 5-5-17.5 5 17.5 5-5-5z"/>
</marker>
<marker id="id3" style="overflow:visible;" orient="auto">
<path transform="matrix(.8 0 0 .8 10 0)" style="fill:#6600cc; stroke:#6600cc; stroke-width:1pt;" d="m0 0 5-5-17.5 5 17.5 5-5-5z"/>
</marker>
<marker id="id4" style="overflow:visible;" orient="auto">
<path transform="matrix(-.8 0 0 -.8 -10 0)" style="fill:#6600cc; stroke:#6600cc; stroke-width:1pt;" d="m0 0 5-5-17.5 5 17.5 5-5-5z"/>
</marker>
<filter id="id5" x="-.02833" y="-.1371" width="1.057" height="1.274">
<feGaussianBlur stdDeviation="2.2282282"/>
</filter>
</defs>
<circle cx="83.8" cy="83.8" r="83.459999" style="fill:#b3defd; fill-opacity:0.23; stroke:black; stroke-width:0.81;"/>
<circle cx="83.8" cy="83.8" r="2.9860001" style="fill:black;"/>
<path style="opacity:0.74; fill:#b3defd; stroke:black; stroke-width:1.06;" d="m 125.7,11.7 a 83.5,83.5 0 0 1 41.6,72.2 l -83.5,0 z"/>
<path style="marker-start:url(#id1); marker-end:url(#id2); fill:none; stroke:#f44800; stroke-width:0.89;" d="m 119,22.9 a 70.4,70.4 0 0 1 35.2,60.9"/>
<path style="marker-start:url(#id3); marker-end:url(#id4); fill:none; stroke:#6600cc; stroke-width:0.77;" d="m 84.5,93.3 83.1,0"/>
<path style="fill:none; stroke:#6600cc; stroke-width:3.23;" d="m 125.1,11.3 a 83.5,83.5 0 0 1 42.2,72.6"/>
<text x="234.1" y="15.6" style="font-family:Arial; text-align:end; text-anchor:end; font-size:20.1px; fill:#6600cc;">length = r</text>
<text x="128.7" y="111.2" style="font-family:Arial; text-align:end; text-anchor:end; font-size:25px; fill:#6600cc;">r</text>
<path style="fill:#6600cc; stroke:#6600cc; stroke-width:1.79;" d="m 191.6,20.6 c -0.1,0.4 -0.3,0.8 -0.5,1.2 -0.2,0.5 -0.4,1 -0.7,1.5 -0.2,0.5 -0.5,1 -0.7,1.5 -0.2,0.5 -0.5,1 -0.8,1.5 -0.3,0.4 -0.6,0.9 -0.9,1.3 -0.2,0.3 -0.5,0.6 -0.7,0.9 -0.2,0.3 -0.4,0.5 -0.7,0.7 -0.3,0.2 -0.6,0.4 -0.9,0.5 -0.9,0.4 -1.9,0.6 -2.8,0.7 -0.3,0.1 -0.6,0.1 -1,0.1 -0.3,0 -0.7,-0.1 -1,-0.1 -0.3,0 -0.6,-0.1 -1,-0.2 -0.3,-0.1 -0.6,-0.1 -0.9,-0.2 -0.3,-0.1 -0.7,-0.1 -1,-0.2 -0.3,0 -0.7,-0.1 -1,-0.1 -0.4,0 -0.7,-0.1 -1.1,-0.1 -0.4,0 -0.9,0 -1.3,0.1 -0.5,0.1 -1,0.2 -1.5,0.2 -0.4,0.1 -0.9,0.2 -1.3,0.3 0.6,-0.2 -1.3,0.3 -0.8,0.2 2.3,-0.6 2.1,-0.6 1.4,-0.4 -0.4,0.1 -0.8,0.3 -1.2,0.4 -0.4,0.2 -0.8,0.3 -1.1,0.5 -0.4,0.2 -0.8,0.4 -1.1,0.6 -0.4,0.2 -0.8,0.5 -1.1,0.7 -0.3,0.2 -0.6,0.4 -0.9,0.6 -0.3,0.2 -0.6,0.5 -0.9,0.7 -0.3,0.2 -0.5,0.5 -0.8,0.7 -0.2,0.2 -0.4,0.4 -0.6,0.6 -0.1,0.1 -0.3,0.2 -0.4,0.3 -0.1,0.1 -0.2,0.1 -0.2,0.2 0,0 -0.1,0.1 -0.1,0.1 -0.1,0 -0.1,0.1 -0.1,0 l -2.4,-0.4 c 0,-0.1 0,-0.1 0.1,-0.2 0.1,0 0.1,-0.1 0.1,-0.1 0.1,-0.1 0.2,-0.1 0.2,-0.2 0.1,-0.1 0.3,-0.2 0.4,-0.3 0.2,-0.2 0.4,-0.4 0.6,-0.5 0.3,-0.3 0.6,-0.5 0.8,-0.7 0.3,-0.3 0.6,-0.6 0.9,-0.8 0.3,-0.3 0.6,-0.5 0.9,-0.7 0.4,-0.2 0.8,-0.5 1.1,-0.7 0.4,-0.2 0.8,-0.5 1.2,-0.7 0.4,-0.2 0.8,-0.4 1.1,-0.5 0.4,-0.2 0.8,-0.3 1.2,-0.5 1,-0.4 2,-0.6 3,-0.8 0.4,-0.1 0.9,-0.2 1.3,-0.2 0.5,-0.1 1,-0.2 1.5,-0.2 l 1.4,0 c 0.4,0 0.8,0.1 1.2,0.1 0.4,0.1 0.7,0.1 1.1,0.2 0.3,0.1 0.7,0.1 1,0.2 0.3,0.1 0.6,0.1 0.9,0.2 0.3,0.1 0.6,0.1 0.9,0.1 l 0.9,0 c 0.3,0 0.6,-0.1 0.9,-0.2 0.2,-0.1 0.3,-0.1 0.5,-0.1 0.1,0 0.2,-0.1 0.2,-0.1 -1.8,0.5 -2.2,0.6 -1.5,0.4 0.3,-0.1 0.6,-0.1 0.8,-0.3 0.2,-0.1 0.4,-0.2 0.6,-0.4 0.2,-0.3 0.5,-0.6 0.7,-0.9 0.3,-0.4 0.6,-0.8 0.9,-1.2 0.3,-0.5 0.6,-0.9 0.8,-1.4 0.2,-0.5 0.5,-1 0.7,-1.5 0.2,-0.5 0.4,-1 0.7,-1.5 0.2,-0.4 0.3,-0.8 0.5,-1.2 l 2.4,-0.1 z"/>
<path style="fill:#6600cc; stroke:#6600cc; stroke-width:1.79;" d="m 165.5,25 c -0.1,0.4 -0.2,0.7 -0.3,1.1 -0.1,0.4 -0.2,0.9 -0.4,1.3 -0.1,0.4 -0.2,0.9 -0.4,1.3 -0.1,0.4 -0.2,0.9 -0.3,1.3 -0.1,0.4 -0.2,0.9 -0.3,1.3 -0.1,0.5 -0.2,0.9 -0.4,1.3 -0.1,0.4 -0.3,0.9 -0.4,1.3 l -0.3,1 c -0.1,0.3 -0.1,0.5 -0.2,0.8 0,0.2 -0.1,0.3 -0.2,0.5 -0.1,0.1 -0.1,0.2 -0.1,0.3 0,0.1 0,0.1 -0.1,0.2 l 0,0.1 0,-0.2 c -0.1,-0.2 -0.2,-0.4 -0.3,-0.6 l 0,-0.1 c -0.9,0.2 -2.4,0.6 -1.6,0.4 0.9,-0.3 1.8,-0.5 2.7,-0.7 0.3,-0.1 0.7,-0.2 1,-0.2 l 1,0 1.2,0 c 0.4,0 0.7,0.1 1.1,0.1 0.3,0 0.7,0.1 1,0.1 0.4,0.1 0.7,0.1 1.1,0.1 0.3,0 0.6,0 0.9,0.1 0.2,0 0.4,0.1 0.7,0.1 0.2,0 0.4,0.1 0.5,0.1 0.1,0 0.3,0.1 0.4,0.1 l 0.2,0 c 0.1,0 0.1,0 0.2,0.1 l -1.9,1.4 c 0.1,0.1 0,0.1 -0.1,0.1 -0.1,0 -0.2,-0.1 -0.2,-0.1 -0.1,0 -0.3,0 -0.4,-0.1 -0.2,-0.1 -0.3,-0.1 -0.5,-0.1 -0.2,0 -0.4,0 -0.6,-0.1 -0.3,-0.1 -0.6,-0.1 -0.8,-0.1 -0.4,0 -0.7,0 -1.1,-0.1 -0.3,-0.1 -0.7,-0.1 -1,-0.1 l -1,0 -1.2,0 c -0.3,0 -0.6,0 -0.9,0.1 -0.3,0.1 -0.6,0.2 -0.9,0.2 -1.8,0.5 2.2,-0.6 1,-0.3 -1,0.3 -2.5,1.2 -2.6,-0.4 l 0,-0.1 c 0,-0.1 0.1,-0.1 0.1,-0.2 0,-0.1 0.1,-0.2 0.1,-0.3 0.1,-0.2 0.1,-0.3 0.2,-0.5 0.1,-0.3 0.2,-0.5 0.2,-0.8 l 0.3,-1 c 0.1,-0.4 0.3,-0.9 0.4,-1.3 0.1,-0.4 0.3,-0.9 0.4,-1.3 0.1,-0.4 0.2,-0.8 0.3,-1.3 0.1,-0.5 0.2,-0.9 0.3,-1.4 0.1,-0.5 0.2,-0.9 0.3,-1.3 0.1,-0.4 0.2,-0.9 0.4,-1.3 0.1,-0.4 0.2,-0.8 0.3,-1.1 l 2.4,-0.1 z"/>
<text x="-427.4" y="504.6" transform="matrix(0.4256,0,0,0.4256,317.8,-150.4)" style="font-family:'Comic Sans MS'; text-align:end; text-anchor:end; font-size:56.4px; fill:white; filter:url(#id5);">1 Radian</text>
<text x="134.3" y="63.2" style="font-family:'Comic Sans MS'; text-align:end; text-anchor:end; font-size:24px; fill:#f44800;">1 Radian</text>
<path style="fill:none; stroke:#6600cc; stroke-width:2.89;" d="m 85.2,84.4 83.2,0"/>
</svg>
